HIERARCHY
ROOT Hips
{
	OFFSET -0.001795 -0.223333 0.028219
	CHANNELS 6 Xposition Yposition Zposition Zrotation Yrotation Xrotation 
	JOINT LeftUpLeg
	{
		OFFSET 0.069520 -0.091406 -0.006815
		CHANNELS 3 Zrotation Yrotation Xrotation
		JOINT LeftLeg
		{
			OFFSET 0.034277 -0.375199 -0.004496
			CHANNELS 3 Zrotation Yrotation Xrotation
			JOINT LeftFoot
			{
				OFFSET -0.013596 -0.397961 -0.043693
				CHANNELS 3 Zrotation Yrotation Xrotation
				JOINT LeftToe
				{
					OFFSET 0.026358 -0.055791 0.119288
					CHANNELS 3 Zrotation Yrotation Xrotation
					End Site
					{
						OFFSET 0.000000 0.000000 0.000000
					}
				}
			}
		}
	}
	JOINT RightUpLeg
	{
		OFFSET -0.067670 -0.090522 -0.004320
		CHANNELS 3 Zrotation Yrotation Xrotation
		JOINT RightLeg
		{
			OFFSET -0.038290 -0.382569 -0.008850
			CHANNELS 3 Zrotation Yrotation Xrotation
			JOINT RightFoot
			{
				OFFSET 0.015774 -0.398415 -0.042312
				CHANNELS 3 Zrotation Yrotation Xrotation
				JOINT RightToe
				{
					OFFSET -0.025372 -0.048144 0.123348
					CHANNELS 3 Zrotation Yrotation Xrotation
					End Site
					{
						OFFSET 0.000000 0.000000 0.000000
					}
				}
			}
		}
	}
	JOINT Spine
	{
		OFFSET -0.002533 0.108963 -0.026696
		CHANNELS 3 Zrotation Yrotation Xrotation
		JOINT Spine1
		{
			OFFSET 0.005487 0.135180 0.001092
			CHANNELS 3 Zrotation Yrotation Xrotation
			JOINT Spine2
			{
				OFFSET 0.001457 0.052922 0.025425
				CHANNELS 3 Zrotation Yrotation Xrotation
				JOINT Neck
				{
					OFFSET -0.002778 0.213870 -0.042857
					CHANNELS 3 Zrotation Yrotation Xrotation
					JOINT Head
					{
						OFFSET 0.005152 0.064970 0.051349
						CHANNELS 3 Zrotation Yrotation Xrotation
						End Site
						{
							OFFSET 0.000000 0.000000 0.000000
						}
					}
				}
				JOINT LeftShoulder
				{
					OFFSET 0.078845 0.121749 -0.034090
					CHANNELS 3 Zrotation Yrotation Xrotation
					JOINT LeftArm
					{
						OFFSET 0.090977 0.030469 -0.008868
						CHANNELS 3 Zrotation Yrotation Xrotation
						JOINT LeftForeArm
						{
							OFFSET 0.259612 -0.012772 -0.027456
							CHANNELS 3 Zrotation Yrotation Xrotation
							JOINT LeftHand
							{
								OFFSET 0.249234 0.008986 -0.001171
								CHANNELS 3 Zrotation Yrotation Xrotation
								End Site
								{
									OFFSET 0.000000 0.000000 0.000000
								}
							}
						}
					}
				}
				JOINT RightShoulder
				{
					OFFSET -0.081759 0.118833 -0.038615
					CHANNELS 3 Zrotation Yrotation Xrotation
					JOINT RightArm
					{
						OFFSET -0.096012 0.032551 -0.009143
						CHANNELS 3 Zrotation Yrotation Xrotation
						JOINT RightForeArm
						{
							OFFSET -0.253742 -0.013329 -0.021401
							CHANNELS 3 Zrotation Yrotation Xrotation
							JOINT RightHand
							{
								OFFSET -0.255298 0.007772 -0.005559
								CHANNELS 3 Zrotation Yrotation Xrotation
								End Site
								{
									OFFSET 0.000000 0.000000 0.000000
								}
							}
						}
					}
				}
			}
		}
	}
}
MOTION
Frames: 17
Frame Time: 0.050000
-0.098058 0.939829 0.205443 -0.820731 14.178018 -3.750432 9.812132 -0.444470 2.769352 -3.094816 0.207625 2.694050 7.117710 16.974458 13.602143 0.000000 0.000000 0.000000 -8.848791 -0.159866 -3.044039 5.525233 -1.017824 8.017513 -1.122764 -5.359402 11.906987 0.000000 0.000000 0.000000 -1.439153 -1.678233 26.401427 10.097881 -2.428721 -17.498514 0.555356 -2.541143 21.373820 -4.091522 4.614037 -27.629365 0.000000 0.000000 0.000000 -22.076267 -14.863459 5.497796 -41.477933 -17.944196 -0.246729 -115.916602 -56.367964 85.291650 0.000000 0.000000 0.000000 15.909878 21.181903 10.882414 42.869708 17.787872 0.070300 43.836612 70.663051 36.798783 0.000000 0.000000 0.000000 
-0.098150 0.939391 0.203146 -0.732585 14.184047 -3.768480 9.935730 -0.450335 2.657582 -3.528734 0.250278 2.704619 7.127570 16.969906 13.499651 0.000000 0.000000 0.000000 -8.865484 -0.170085 -2.655271 5.350236 -0.945720 7.153435 -1.132374 -5.369126 11.857214 0.000000 0.000000 0.000000 -1.357758 -1.687309 26.327576 10.234606 -2.452586 -17.702093 0.772112 -2.092083 21.729771 -4.454889 4.888161 -28.023924 0.000000 0.000000 0.000000 -22.170387 -14.728239 5.300097 -42.285211 -18.837976 0.071703 -117.555264 -54.961326 85.367299 0.000000 0.000000 0.000000 15.986491 20.994932 10.900134 43.461883 17.417622 -0.065662 41.124215 69.660434 34.196260 0.000000 0.000000 0.000000 
-0.098671 0.939188 0.201175 -0.635427 14.484457 -3.618610 9.928195 -0.456291 2.328559 -3.665050 0.260756 2.678779 6.984952 16.781420 13.425252 0.000000 0.000000 0.000000 -8.893518 -0.179527 -2.508199 5.245238 -0.907955 6.520480 -1.274827 -5.611600 11.891902 0.000000 0.000000 0.000000 -1.065685 -1.734742 25.987083 10.253597 -2.466325 -17.551136 0.871087 -2.075843 21.687322 -5.029228 5.218200 -28.266278 0.000000 0.000000 0.000000 -22.717505 -14.409719 5.065803 -42.693984 -19.742212 0.424890 -118.656119 -54.009742 85.446880 0.000000 0.000000 0.000000 15.914806 21.189532 11.023962 44.055868 16.594779 -0.312718 40.313389 69.136610 33.293563 0.000000 0.000000 0.000000 
-0.099376 0.938797 0.199828 -0.584729 14.591587 -3.633112 9.919356 -0.458163 2.360897 -3.689958 0.265079 2.461631 6.932266 16.702624 13.359847 0.000000 0.000000 0.000000 -8.806441 -0.192193 -1.900270 5.057889 -0.835709 5.366580 -1.327106 -5.693155 11.859860 0.000000 0.000000 0.000000 -1.013257 -1.710587 25.600210 10.546519 -2.568216 -17.512862 0.952242 -1.626639 21.869156 -5.424102 5.511730 -28.383370 0.000000 0.000000 0.000000 -23.342644 -14.429338 4.915188 -42.944417 -20.108529 0.608953 -120.113653 -52.900538 85.580996 0.000000 0.000000 0.000000 15.963219 20.882824 10.992540 44.201420 16.012269 -0.539562 41.637821 68.540636 34.031328 0.000000 0.000000 0.000000 
-0.100231 0.938791 0.198865 -0.454855 14.759606 -3.579092 9.888084 -0.459950 2.308389 -3.793973 0.274940 2.306366 6.819794 16.567866 13.416856 0.000000 0.000000 0.000000 -8.901227 -0.213131 -1.421561 5.064764 -0.813202 4.400566 -1.376535 -5.786713 11.948157 0.000000 0.000000 0.000000 -0.835371 -1.724478 25.288404 10.277990 -2.436526 -17.809411 1.199929 -1.882225 22.238806 -5.918007 5.764654 -28.173599 0.000000 0.000000 0.000000 -23.589667 -14.238943 4.865434 -43.297839 -20.542571 0.727933 -121.043227 -52.189234 85.981554 0.000000 0.000000 0.000000 15.553507 20.712446 10.787434 44.648253 15.342701 -0.777359 41.531307 67.735517 33.436500 0.000000 0.000000 0.000000 
-0.101062 0.939208 0.198042 -0.483670 15.179429 -3.383323 10.215441 -0.499672 2.075636 -4.209509 0.309933 2.015084 6.565144 16.264105 13.530456 0.000000 0.000000 0.000000 -8.899550 -0.227364 -1.108967 5.217110 -0.824984 3.476043 -1.522143 -6.068462 12.282487 0.000000 0.000000 0.000000 -0.541971 -1.738727 24.608868 10.241001 -2.404857 -17.848818 1.193220 -1.873136 22.313025 -6.132148 5.919680 -28.045739 0.000000 0.000000 0.000000 -24.323206 -13.964370 4.604043 -43.470230 -20.654242 0.815660 -121.881902 -51.160676 85.581047 0.000000 0.000000 0.000000 15.397932 20.117819 10.524799 44.843213 14.387124 -1.127842 40.794070 67.451409 32.800139 0.000000 0.000000 0.000000 
-0.101777 0.940052 0.197108 -0.416749 15.273089 -3.240569 10.257516 -0.506477 1.955202 -4.357405 0.322488 1.804089 6.442525 16.164753 13.845998 0.000000 0.000000 0.000000 -8.738873 -0.227931 -0.779216 4.886576 -0.746322 2.541187 -1.539355 -6.139523 12.662470 0.000000 0.000000 0.000000 -0.092678 -1.781850 24.101497 10.077424 -2.302752 -18.200624 1.103697 -1.874166 22.664775 -6.224681 5.999580 -27.597041 0.000000 0.000000 0.000000 -24.808207 -13.799877 4.473786 -43.785409 -20.499831 0.766408 -122.939686 -50.630843 86.237556 0.000000 0.000000 0.000000 15.194987 19.414607 10.164053 45.114743 13.380191 -1.520514 40.351749 67.008897 32.276568 0.000000 0.000000 0.000000 
-0.102387 0.940958 0.196009 -0.406374 15.567662 -3.052246 10.506312 -0.538314 1.870414 -4.761060 0.352648 1.309095 6.208547 15.925827 14.160545 0.000000 0.000000 0.000000 -8.515750 -0.226755 -0.569126 4.540667 -0.678100 1.757932 -1.650587 -6.367999 13.104671 0.000000 0.000000 0.000000 0.268324 -1.798492 23.447272 10.059703 -2.283497 -18.219925 1.038534 -1.916550 22.710483 -6.127632 5.970282 -27.376986 0.000000 0.000000 0.000000 -25.334405 -13.574808 4.269168 -44.208912 -20.490852 0.814293 -123.337117 -49.958748 85.820620 0.000000 0.000000 0.000000 14.874999 18.748450 9.807426 45.315101 12.771989 -1.741386 37.816813 66.764866 30.375593 0.000000 0.000000 0.000000 
-0.102967 0.941408 0.194813 -0.343773 15.621259 -2.958369 10.472199 -0.536819 1.786451 -4.791332 0.354195 1.127323 6.135565 15.871117 14.356933 0.000000 0.000000 0.000000 -8.417435 -0.227948 -0.378204 4.292229 -0.630282 1.126448 -1.657868 -6.407091 13.364137 0.000000 0.000000 0.000000 0.586219 -1.836434 23.192354 9.882345 -2.179169 -18.591783 0.890934 -2.245198 22.852279 -6.028207 5.874401 -27.531093 0.000000 0.000000 0.000000 -25.936149 -13.369314 4.227241 -44.304805 -20.118687 0.669185 -124.028622 -49.295368 86.013061 0.000000 0.000000 0.000000 14.607857 18.276078 9.473286 45.429211 12.138438 -1.975256 37.018928 66.540699 29.652813 0.000000 0.000000 0.000000 
-0.103545 0.941476 0.193723 -0.333246 15.702184 -2.937980 10.530726 -0.549601 2.042891 -4.879335 0.358093 0.465919 6.051421 15.784491 14.487876 0.000000 0.000000 0.000000 -8.254632 -0.223244 -0.359578 4.024789 -0.587235 0.944881 -1.708253 -6.495162 13.429066 0.000000 0.000000 0.000000 0.986723 -1.879169 22.836926 9.654787 -2.090767 -18.674976 0.751077 -2.491126 22.860875 -5.754678 5.706978 -26.942982 0.000000 0.000000 0.000000 -26.372686 -13.418340 4.307805 -44.278772 -19.772297 0.540967 -123.886839 -48.596061 85.013117 0.000000 0.000000 0.000000 14.705470 17.825714 9.241523 45.278343 11.924095 -2.062275 36.771023 66.506613 29.425858 0.000000 0.000000 0.000000 
-0.103989 0.941127 0.192736 -0.223593 15.499809 -2.870074 10.552136 -0.548584 2.170577 -5.122592 0.375230 0.127006 6.145572 15.909780 14.563530 0.000000 0.000000 0.000000 -8.208724 -0.208797 -0.542548 3.753678 -0.542588 0.996842 -1.659909 -6.402473 13.272707 0.000000 0.000000 0.000000 1.146235 -1.859386 22.491868 9.661717 -2.094658 -18.688723 0.449008 -2.760554 22.881944 -5.559507 5.549624 -26.594270 0.000000 0.000000 0.000000 -26.869958 -13.275039 4.337649 -44.168541 -19.384903 0.379896 -123.104525 -47.813977 83.181966 0.000000 0.000000 0.000000 14.926242 17.694403 9.153836 45.227105 11.955173 -2.054097 35.719734 66.604599 28.661358 0.000000 0.000000 0.000000 
-0.104192 0.940939 0.191766 -0.110728 15.266934 -2.761467 10.624768 -0.555908 2.469618 -5.495147 0.394861 -0.573116 6.231918 16.038043 14.742256 0.000000 0.000000 0.000000 -8.150916 -0.191154 -0.758379 3.429993 -0.489684 1.024577 -1.594997 -6.288322 13.179155 0.000000 0.000000 0.000000 1.507136 -1.872428 22.093420 9.290895 -1.957439 -18.865838 0.484261 -3.137199 23.076797 -5.622579 5.525199 -25.861654 0.000000 0.000000 0.000000 -27.502974 -13.642791 4.745217 -43.653242 -19.113472 0.218935 -122.943626 -47.610452 82.990859 0.000000 0.000000 0.000000 15.088665 17.440419 8.975098 44.972150 11.711758 -2.162907 36.672225 66.691533 29.294515 0.000000 0.000000 0.000000 
-0.104207 0.940839 0.190879 -0.039737 15.001707 -2.833416 10.750328 -0.564317 2.829719 -5.900025 0.415680 -1.028840 6.330237 16.172657 14.888988 0.000000 0.000000 0.000000 -8.130201 -0.184153 -0.800471 3.226145 -0.455549 1.075249 -1.486730 -6.107141 13.120408 0.000000 0.000000 0.000000 1.674447 -1.858159 21.812566 9.434534 -2.015811 -18.817852 0.331128 -3.396628 22.948184 -5.662255 5.486094 -25.819852 0.000000 0.000000 0.000000 -27.624463 -13.612273 4.869478 -43.525803 -19.047352 0.168473 -122.796967 -47.551083 82.918595 0.000000 0.000000 0.000000 15.102464 17.378389 8.860621 44.774287 11.588655 -2.182934 37.736604 66.579661 29.875571 0.000000 0.000000 0.000000 
-0.104122 0.941106 0.190099 0.082423 14.944219 -2.877670 10.748228 -0.570821 3.260475 -6.168784 0.417723 -1.707576 6.289971 16.150480 15.120910 0.000000 0.000000 0.000000 -8.234194 -0.189202 -0.794839 3.143271 -0.442158 1.101864 -1.444740 -6.047415 13.195214 0.000000 0.000000 0.000000 1.923663 -1.838733 21.298813 9.267449 -1.962378 -18.790323 0.239516 -3.673629 23.059831 -5.861325 5.568440 -25.127589 0.000000 0.000000 0.000000 -27.537299 -14.065016 5.266969 -43.185929 -19.932579 0.422285 -122.478121 -48.150840 83.493962 0.000000 0.000000 0.000000 15.144219 17.279542 8.765789 44.471957 11.082145 -2.366539 39.170120 67.030657 31.083963 0.000000 0.000000 0.000000 
-0.104108 0.941272 0.189477 0.175312 14.957219 -2.918625 10.749647 -0.574752 3.459561 -6.366277 0.420158 -2.010814 6.242117 16.106486 15.244622 0.000000 0.000000 0.000000 -8.313875 -0.198281 -0.679163 3.087371 -0.433832 0.953829 -1.431019 -6.034323 13.276789 0.000000 0.000000 0.000000 2.200865 -1.843296 20.910184 9.233683 -1.937746 -18.921377 0.059268 -4.028967 23.115081 -5.953676 5.579067 -24.533973 0.000000 0.000000 0.000000 -27.109666 -14.465362 5.633021 -42.955467 -21.258704 0.831447 -121.969966 -49.336048 84.607738 0.000000 0.000000 0.000000 15.000455 17.052891 8.564813 44.145229 10.493520 -2.556403 42.243738 67.170066 33.304947 0.000000 0.000000 0.000000 
-0.104183 0.941604 0.188985 0.163855 15.296020 -3.223184 10.836026 -0.599861 3.898354 -6.470416 0.409764 -2.399187 6.004981 15.819409 15.306557 0.000000 0.000000 0.000000 -8.210002 -0.220458 -0.350616 2.918588 -0.410646 1.027195 -1.555602 -6.244038 13.377793 0.000000 0.000000 0.000000 2.354653 -1.840878 20.580756 9.527048 -2.028339 -18.916788 -0.063296 -4.297566 23.063099 -6.165550 5.702850 -23.552072 0.000000 0.000000 0.000000 -26.589719 -14.985780 5.960342 -42.461732 -23.219788 1.477227 -121.434885 -51.080510 86.200872 0.000000 0.000000 0.000000 14.717869 16.831965 8.392255 43.886650 9.673411 -2.821706 46.044991 67.449546 36.264579 0.000000 0.000000 0.000000 
-0.104259 0.941832 0.188560 0.132950 15.501098 -3.393616 10.914080 -0.615885 4.046385 -6.534773 0.406560 -2.482862 5.870930 15.656751 15.326549 0.000000 0.000000 0.000000 -8.105137 -0.237613 -0.004759 2.788676 -0.393491 0.752449 -1.619819 -6.360822 13.523530 0.000000 0.000000 0.000000 2.494534 -1.851754 20.408426 9.793437 -2.108573 -18.955741 -0.207481 -4.839347 22.915338 -6.295404 5.715070 -23.231231 0.000000 0.000000 0.000000 -25.503224 -15.393146 6.317749 -41.736550 -25.519432 2.166164 -122.062789 -53.315292 89.948124 0.000000 0.000000 0.000000 14.071381 16.571788 8.070438 43.982840 8.924722 -3.040246 49.762329 67.946051 39.313891 0.000000 0.000000 0.000000 
